<?xml version="1.0" encoding="utf-8"?>
<!-- Generator: Adobe Illustrator 18.1.0, SVG Export Plug-In . SVG Version: 6.00 Build 0)  -->
<!DOCTYPE svg PUBLIC "-//W3C//DTD SVG 1.1//EN" "http://www.w3.org/Graphics/SVG/1.1/DTD/svg11.dtd">
<svg version="1.1" id="Calque_1" xmlns="http://www.w3.org/2000/svg" xmlns:xlink="http://www.w3.org/1999/xlink" x="0px" y="0px"
	 viewBox="-463 265 32 32" enable-background="new -463 265 32 32" xml:space="preserve">
<path fill-rule="evenodd" clip-rule="evenodd" fill="#F2F2F2" d="M-435,271c0-1.1-0.9-2-2-2h-20c-1.1,0-2,0.9-2,2v14
	c0,1.1,0.9,2,2,2h1.3l2.7,4l2.7-4h13.3c1.1,0,2-0.9,2-2V271z"/>
<rect x="-463" y="265" fill="none" width="32" height="32"/>
<g>
	<defs>
		<path id="XMLID_21_" d="M-437,291h-12l-4,6l-4-6c-3.3,0-6-2.7-6-6v-14c0-3.3,2.7-6,6-6h20c3.3,0,6,2.7,6,6v14
			C-431,288.3-433.7,291-437,291z M-435,271c0-1.1-0.9-2-2-2h-20c-1.1,0-2,0.9-2,2v14c0,1.1,0.9,2,2,2h1.3l2.7,4l2.7-4h13.3
			c1.1,0,2-0.9,2-2V271z"/>
	</defs>
	<clipPath id="XMLID_2_">
		<use xlink:href="#XMLID_21_"  overflow="visible"/>
	</clipPath>
	
		<rect x="-463" y="265" clip-path="url(#XMLID_2_)" fill-rule="evenodd" clip-rule="evenodd" fill="#39B54A" width="32" height="9"/>
	
		<rect x="-463" y="274" clip-path="url(#XMLID_2_)" fill-rule="evenodd" clip-rule="evenodd" fill="#8C6239" width="32" height="23"/>
</g>
<rect x="-455" y="277" fill-rule="evenodd" clip-rule="evenodd" fill="#666666" width="16" height="2"/>
<rect x="-455" y="273" fill-rule="evenodd" clip-rule="evenodd" fill="#666666" width="16" height="2"/>
<rect x="-455" y="281" fill-rule="evenodd" clip-rule="evenodd" fill="#666666" width="8" height="2"/>
</svg>
