<?xml version="1.0" encoding="utf-8"?>
<!-- Generator: Adobe Illustrator 18.1.0, SVG Export Plug-In . SVG Version: 6.00 Build 0)  -->
<!DOCTYPE svg PUBLIC "-//W3C//DTD SVG 1.1//EN" "http://www.w3.org/Graphics/SVG/1.1/DTD/svg11.dtd">
<svg version="1.1" id="Calque_1" xmlns="http://www.w3.org/2000/svg" xmlns:xlink="http://www.w3.org/1999/xlink" x="0px" y="0px"
	 viewBox="-463 265 32 32" enable-background="new -463 265 32 32" xml:space="preserve">
<rect x="-463" y="265" fill="none" width="32" height="32"/>
<g>
	<path fill-rule="evenodd" clip-rule="evenodd" fill="#39B54A" d="M-440.3,270.3c-0.3-1.2-0.9-2.3-1.8-3.2c-2.7-2.8-7.2-2.8-9.9,0
		c-0.9,0.9-1.5,2-1.8,3.2C-449.5,268.3-444.5,268.3-440.3,270.3z"/>
	<path fill-rule="evenodd" clip-rule="evenodd" fill="#8C6239" d="M-433,282.9h-4.1c0-0.7,0.1-1.3,0.1-2c0-0.7,0-1.4-0.1-2
		c0,0,0,0,0.1,0v0h2c1.1,0,2-0.9,2-2c0-1.1-0.9-2-2-2h-2v0c-0.3,0-0.6,0.1-0.8,0.1c-1.2-3.1-3.9-4.1-9.2-4.1s-7.9,1-9.2,4.1
		c-0.3,0-0.6-0.1-0.8-0.1v0h-2c-1.1,0-2,0.9-2,2c0,1.1,0.9,2,2,2h2v0c0,0,0,0,0.1,0c0,0.6-0.1,1.3-0.1,2c0,0.7,0,1.3,0.1,2h-4.1
		c-1.1,0-2,0.9-2,2c0,1.1,0.9,2,2,2h4.5c0.3,1.4,0.7,2.8,1.2,4h-1.7c-1.1,0-2,0.9-2,2c0,1.1,0.9,2,2,2h2v0c0.7,0,1.4-0.1,2.1-0.3
		c1.5,1.4,3.4,2.3,5.9,2.3s4.4-0.9,5.9-2.3c0.7,0.2,1.4,0.3,2.1,0.3v0h2c1.1,0,2-0.9,2-2c0-1.1-0.9-2-2-2h-1.7
		c0.5-1.2,0.9-2.6,1.2-4h4.5c1.1,0,2-0.9,2-2C-431,283.8-431.9,282.9-433,282.9z"/>
</g>
</svg>
