<?xml version="1.0" encoding="utf-8"?>
<!-- Generator: Adobe Illustrator 18.1.0, SVG Export Plug-In . SVG Version: 6.00 Build 0)  -->
<!DOCTYPE svg PUBLIC "-//W3C//DTD SVG 1.1//EN" "http://www.w3.org/Graphics/SVG/1.1/DTD/svg11.dtd">
<svg version="1.1" id="Calque_1" xmlns="http://www.w3.org/2000/svg" xmlns:xlink="http://www.w3.org/1999/xlink" x="0px" y="0px"
	 viewBox="-463 265 32 32" enable-background="new -463 265 32 32" xml:space="preserve">
<path fill="#F2F2F2" d="M-435,275c0-1.1-0.9-2-2-2h-10v-2c0-1.1-0.9-2-2-2h-8c-1.1,0-2,0.9-2,2v20c0,1.1,0.9,2,2,2h20
	c1.1,0,2-0.9,2-2V275z"/>
<rect x="-463" y="265" fill="none" width="32" height="32"/>
<g>
	<defs>
		<path id="XMLID_25_" d="M-437,297h-20c-3.3,0-6-2.7-6-6v-20c0-3.3,2.7-6,6-6h8c2.6,0,4.8,1.7,5.6,4h6.4c3.3,0,6,2.7,6,6v16
			C-431,294.3-433.7,297-437,297z M-435,275c0-1.1-0.9-2-2-2h-10v-2c0-1.1-0.9-2-2-2h-8c-1.1,0-2,0.9-2,2v20c0,1.1,0.9,2,2,2h20
			c1.1,0,2-0.9,2-2V275z"/>
	</defs>
	<clipPath id="XMLID_2_">
		<use xlink:href="#XMLID_25_"  overflow="visible"/>
	</clipPath>
	
		<rect x="-463" y="265" clip-path="url(#XMLID_2_)" fill-rule="evenodd" clip-rule="evenodd" fill="#39B54A" width="32" height="9"/>
	
		<rect x="-463" y="274" clip-path="url(#XMLID_2_)" fill-rule="evenodd" clip-rule="evenodd" fill="#8C6239" width="32" height="23"/>
</g>
<path fill="#C1272D" d="M-447,275.2l2.2,4.5l5,0.7l-3.6,3.5l0.8,4.9l-4.4-2.3l-4.4,2.3l0.8-4.9l-3.6-3.5l5-0.7L-447,275.2z"/>
</svg>
