<?xml version="1.0" encoding="utf-8"?>
<!-- Generator: Adobe Illustrator 18.1.0, SVG Export Plug-In . SVG Version: 6.00 Build 0)  -->
<!DOCTYPE svg PUBLIC "-//W3C//DTD SVG 1.1//EN" "http://www.w3.org/Graphics/SVG/1.1/DTD/svg11.dtd">
<svg version="1.1" id="Calque_1" xmlns="http://www.w3.org/2000/svg" xmlns:xlink="http://www.w3.org/1999/xlink" x="0px" y="0px"
	 viewBox="-463 265 32 32" enable-background="new -463 265 32 32" xml:space="preserve">
<path fill="#6699CC" d="M-437,289h-0.4c0-0.1-0.1-0.2-0.1-0.3c-0.7-1.6-1.5-2.8-3.5-3.4V283c0-3.3-2.7-6-6-6c-3.3,0-6,2.7-6,6v2.3
	c-2,0.6-2.9,1.8-3.5,3.4c0,0,0,0.1,0,0.1c-3.7-0.7-6.4-4-6.4-7.8v-2c0-4.4,3.6-8,8-8c0.8,0,1.5,0.1,2.2,0.3c0.8-3.6,4-6.3,7.8-6.3
	c4.4,0,8,3.6,8,8c0,0.7-0.1,1.4-0.3,2c0.1,0,0.2,0,0.3,0c3.3,0,6,2.7,6,6v2C-431,286.3-433.7,289-437,289z"/>
<path fill="#39B54A" d="M-451,289h2v-6c0-1.1,0.9-2,2-2c1.1,0,2,0.9,2,2v6h2c0.8,0,1.5,0.5,1.8,1.2c0.1,0.2,0.1,0.4,0.1,0.6
	c0.1,0.6-0.1,1.2-0.6,1.6l-4,4c-0.4,0.4-0.9,0.6-1.4,0.6s-1-0.2-1.4-0.6l-4-4c-0.4-0.4-0.6-1-0.6-1.6c0-0.2,0.1-0.4,0.1-0.6
	C-452.5,289.5-451.8,289-451,289z"/>
<rect x="-463" y="265" fill="none" width="32" height="32"/>
</svg>
