<?xml version="1.0" encoding="utf-8"?>
<!-- Generator: Adobe Illustrator 18.1.0, SVG Export Plug-In . SVG Version: 6.00 Build 0)  -->
<!DOCTYPE svg PUBLIC "-//W3C//DTD SVG 1.1//EN" "http://www.w3.org/Graphics/SVG/1.1/DTD/svg11.dtd">
<svg version="1.1" id="Calque_1" xmlns="http://www.w3.org/2000/svg" xmlns:xlink="http://www.w3.org/1999/xlink" x="0px" y="0px"
	 viewBox="-463 265 32 32" enable-background="new -463 265 32 32" xml:space="preserve">
<path fill="#F2F2F2" d="M-459,291c0,1.1,0.9,2,2,2h14c1.1,0,2-0.9,2-2v-12h-18V291z"/>
<path fill="#39B54A" d="M-435,290.6V275c0-3.3-2.7-6-6-6h-15.6c0.8-2.3,3-4,5.6-4h14c3.3,0,6,2.7,6,6v14
	C-431,287.6-432.7,289.8-435,290.6z"/>
<g>
	<defs>
		<path id="XMLID_24_" d="M-437,277v14c0,3.3-2.7,6-6,6h-14c-3.3,0-6-2.7-6-6v-14c0-3.3,2.7-6,6-6h14C-439.7,271-437,273.7-437,277z
			 M-459,291c0,1.1,0.9,2,2,2h14c1.1,0,2-0.9,2-2v-12h-18V291z M-457,273c-1.1,0-2,0.9-2,2c0,1.1,0.9,2,2,2s2-0.9,2-2
			C-455,273.9-455.9,273-457,273z"/>
	</defs>
	<clipPath id="XMLID_2_">
		<use xlink:href="#XMLID_24_"  overflow="visible"/>
	</clipPath>
	
		<rect x="-463" y="271" clip-path="url(#XMLID_2_)" fill-rule="evenodd" clip-rule="evenodd" fill="#39B54A" width="32" height="9"/>
	
		<rect x="-463" y="280" clip-path="url(#XMLID_2_)" fill-rule="evenodd" clip-rule="evenodd" fill="#8C6239" width="32" height="17"/>
</g>
<rect x="-463" y="265" fill="none" width="32" height="32"/>
</svg>
