<?xml version="1.0" encoding="utf-8"?>
<!-- Generator: Adobe Illustrator 18.1.0, SVG Export Plug-In . SVG Version: 6.00 Build 0)  -->
<!DOCTYPE svg PUBLIC "-//W3C//DTD SVG 1.1//EN" "http://www.w3.org/Graphics/SVG/1.1/DTD/svg11.dtd">
<svg version="1.1" id="Calque_1" xmlns="http://www.w3.org/2000/svg" xmlns:xlink="http://www.w3.org/1999/xlink" x="0px" y="0px"
	 viewBox="-463 265 32 32" enable-background="new -463 265 32 32" xml:space="preserve">
<g>
	<defs>
		<path id="XMLID_12_" d="M-457,297h20c3.3,0,6-2.7,6-6v-20c0-3.3-2.7-6-6-6h-9.1c0.7,1.2,1.1,2.6,1.1,4h8c1.1,0,2,0.9,2,2v20
			c0,1.1-0.9,2-2,2h-20c-1.1,0-2-0.9-2-2v-4.5l-4-3v7.5C-463,294.3-460.3,297-457,297z"/>
	</defs>
	<clipPath id="XMLID_2_">
		<use xlink:href="#XMLID_12_"  overflow="visible"/>
	</clipPath>
	
		<rect x="-463" y="265" clip-path="url(#XMLID_2_)" fill-rule="evenodd" clip-rule="evenodd" fill="#39B54A" width="32" height="9"/>
	
		<rect x="-463" y="274" clip-path="url(#XMLID_2_)" fill-rule="evenodd" clip-rule="evenodd" fill="#8C6239" width="32" height="23"/>
</g>
<path fill-rule="evenodd" clip-rule="evenodd" fill="#009245" d="M-454.2,282.6c0.4,0.3,0.8,0.4,1.2,0.4c0.3,0,0.6-0.1,0.9-0.2
	c0.7-0.3,1.1-1,1.1-1.8v-1.9V279c6.3,0,11.7,4.2,13.4,10c0.4-1.3,0.6-2.6,0.6-4c0-7.7-6.3-14-14-14v-2c0-0.8-0.4-1.5-1.1-1.8
	c-0.3-0.1-0.6-0.2-0.9-0.2c-0.4,0-0.8,0.1-1.2,0.4l-8,6c-0.5,0.4-0.8,1-0.8,1.6c0,0.6,0.3,1.2,0.8,1.6L-454.2,282.6z"/>
</svg>
