<?xml version="1.0" encoding="utf-8"?>
<!-- Generator: Adobe Illustrator 18.1.0, SVG Export Plug-In . SVG Version: 6.00 Build 0)  -->
<!DOCTYPE svg PUBLIC "-//W3C//DTD SVG 1.1//EN" "http://www.w3.org/Graphics/SVG/1.1/DTD/svg11.dtd">
<svg version="1.1" id="Calque_1" xmlns="http://www.w3.org/2000/svg" xmlns:xlink="http://www.w3.org/1999/xlink" x="0px" y="0px"
	 viewBox="-463 265 32 32" enable-background="new -463 265 32 32" xml:space="preserve">
<g>
	<defs>
		<path id="XMLID_10_" d="M-433,293c-3.1,0.1-8.9,0.7-12.1,2.3c-0.2,1-0.9,1.7-1.9,1.7c-1,0-1.8-0.7-1.9-1.7
			c-3.2-1.6-9-2.2-12.1-2.3c-1.1,0-2-0.9-2-2v-24c0-1.1,0.9-2,2-2c0.1,0,0.1,0,0.2,0c13.8,0.4,13.8,4,13.8,4s0-3.6,13.8-4
			c0.1,0,0.1,0,0.2,0c1.1,0,2,0.9,2,2v24C-431,292.1-431.9,293-433,293z"/>
	</defs>
	<clipPath id="XMLID_2_">
		<use xlink:href="#XMLID_10_"  overflow="visible"/>
	</clipPath>
	
		<rect x="-463" y="265" clip-path="url(#XMLID_2_)" fill-rule="evenodd" clip-rule="evenodd" fill="#39B54A" width="32" height="9"/>
	
		<rect x="-463" y="274" clip-path="url(#XMLID_2_)" fill-rule="evenodd" clip-rule="evenodd" fill="#8C6239" width="32" height="23"/>
</g>
<path fill-rule="evenodd" clip-rule="evenodd" fill="#F2F2F2" d="M-449,271.3c-2.6-1.3-6.8-1.9-10-2.1v19.9c5.4,0.3,8.4,1.1,10,1.9
	V271.3z"/>
<path fill-rule="evenodd" clip-rule="evenodd" fill="#F2F2F2" d="M-435,269.2c-3.2,0.2-7.4,0.8-10,2.1V291c1.6-0.8,4.6-1.6,10-1.9
	V269.2z"/>
</svg>
