<?xml version="1.0" encoding="utf-8"?>
<!-- Generator: Adobe Illustrator 18.1.0, SVG Export Plug-In . SVG Version: 6.00 Build 0)  -->
<!DOCTYPE svg PUBLIC "-//W3C//DTD SVG 1.1//EN" "http://www.w3.org/Graphics/SVG/1.1/DTD/svg11.dtd">
<svg version="1.1" id="Calque_1" xmlns="http://www.w3.org/2000/svg" xmlns:xlink="http://www.w3.org/1999/xlink" x="0px" y="0px"
	 viewBox="-463 265 32 32" enable-background="new -463 265 32 32" xml:space="preserve">
<rect x="-463" y="265" fill="none" width="32" height="32"/>
<g>
	<g>
		<defs>
			<path id="XMLID_20_" d="M-437,297h-20c-3.3,0-6-2.7-6-6v-20c0-3.3,2.7-6,6-6h20c3.3,0,6,2.7,6,6v20C-431,294.3-433.7,297-437,297
				z M-457,267c-1.1,0-2,0.9-2,2c0,1.1,0.9,2,2,2s2-0.9,2-2C-455,267.9-455.9,267-457,267z"/>
		</defs>
		<clipPath id="XMLID_2_">
			<use xlink:href="#XMLID_20_"  overflow="visible"/>
		</clipPath>
		
			<rect x="-463" y="265" clip-path="url(#XMLID_2_)" fill-rule="evenodd" clip-rule="evenodd" fill="#39B54A" width="32" height="9"/>
		
			<rect x="-463" y="274" clip-path="url(#XMLID_2_)" fill-rule="evenodd" clip-rule="evenodd" fill="#8C6239" width="32" height="23"/>
	</g>
	<path fill="#F2F2F2" d="M-435,273h-24v18c0,1.1,0.9,2,2,2h20c1.1,0,2-0.9,2-2V273z"/>
	<path fill="#009245" d="M-443,285h-2v2c0,1.1-0.9,2-2,2s-2-0.9-2-2v-2h-2c-1.1,0-2-0.9-2-2c0-1.1,0.9-2,2-2h2v-2c0-1.1,0.9-2,2-2
		s2,0.9,2,2v2h2c1.1,0,2,0.9,2,2C-441,284.1-441.9,285-443,285z"/>
</g>
</svg>
