<?xml version="1.0" encoding="utf-8"?>
<!-- Generator: Adobe Illustrator 18.1.0, SVG Export Plug-In . SVG Version: 6.00 Build 0)  -->
<!DOCTYPE svg PUBLIC "-//W3C//DTD SVG 1.1//EN" "http://www.w3.org/Graphics/SVG/1.1/DTD/svg11.dtd">
<svg version="1.1" id="Calque_1" xmlns="http://www.w3.org/2000/svg" xmlns:xlink="http://www.w3.org/1999/xlink" x="0px" y="0px"
	 viewBox="-463 265 32 32" enable-background="new -463 265 32 32" xml:space="preserve">
<rect x="-463" y="265" fill="none" width="32" height="32"/>
<path id="XMLID_26_" fill-rule="evenodd" clip-rule="evenodd" fill="#C1272D" d="M-434.7,278.5c-1,0.6-4.2,1.8-7,2.5
	c2.9,0.7,6,1.9,7,2.5c1.9,1.1,2.6,3.6,1.5,5.5c-1.1,1.9-3.6,2.6-5.5,1.5c-1-0.6-3.7-2.7-5.7-4.8c0.8,2.9,1.3,6.2,1.3,7.4
	c0,2.2-1.8,4-4,4c-2.2,0-4-1.8-4-4c0-1.2,0.5-4.5,1.3-7.4c-2.1,2.1-4.7,4.2-5.7,4.8c-1.9,1.1-4.4,0.4-5.5-1.5
	c-1.1-1.9-0.4-4.4,1.5-5.5c1-0.6,4.2-1.8,7-2.5c-2.9-0.7-6-1.9-7-2.5c-1.9-1.1-2.6-3.6-1.5-5.5s3.6-2.6,5.5-1.5
	c1,0.6,3.7,2.7,5.7,4.8c-0.8-2.9-1.3-6.2-1.3-7.4c0-2.2,1.8-4,4-4c2.2,0,4,1.8,4,4c0,1.2-0.5,4.5-1.3,7.4c2.1-2.1,4.7-4.2,5.7-4.8
	c1.9-1.1,4.4-0.4,5.5,1.5S-432.8,277.4-434.7,278.5z"/>
</svg>
