<?xml version="1.0" encoding="utf-8"?>
<!-- Generator: Adobe Illustrator 18.1.0, SVG Export Plug-In . SVG Version: 6.00 Build 0)  -->
<!DOCTYPE svg PUBLIC "-//W3C//DTD SVG 1.1//EN" "http://www.w3.org/Graphics/SVG/1.1/DTD/svg11.dtd">
<svg version="1.1" id="Calque_1" xmlns="http://www.w3.org/2000/svg" xmlns:xlink="http://www.w3.org/1999/xlink" x="0px" y="0px"
	 viewBox="-463 265 32 32" enable-background="new -463 265 32 32" xml:space="preserve">
<g>
	<defs>
		<path id="XMLID_8_" d="M-437,297h-20c-3.3,0-6-2.7-6-6v-20c0-3.3,2.7-6,6-6h20c3.3,0,6,2.7,6,6v20C-431,294.3-433.7,297-437,297z"
			/>
	</defs>
	<clipPath id="XMLID_2_">
		<use xlink:href="#XMLID_8_"  overflow="visible"/>
	</clipPath>
	
		<rect x="-463" y="265" clip-path="url(#XMLID_2_)" fill-rule="evenodd" clip-rule="evenodd" fill="#39B54A" width="32" height="9"/>
	
		<rect x="-463" y="274" clip-path="url(#XMLID_2_)" fill-rule="evenodd" clip-rule="evenodd" fill="#8C6239" width="32" height="23"/>
</g>
<path fill-rule="evenodd" clip-rule="evenodd" fill="#F2F2F2" d="M-435,271c0-1.1-0.9-2-2-2h-20c-1.1,0-2,0.9-2,2v20
	c0,1.1,0.9,2,2,2h20c1.1,0,2-0.9,2-2V271z"/>
<path fill-rule="evenodd" clip-rule="evenodd" fill="#666666" d="M-439,291h-16c-1.1,0-2-0.9-2-2v-0.7c0.8-1.7,1.5-3.8,2-4.8
	c1.1-2.4,3.5,3.5,4.9,3.5c2.8,0,6.2-10.7,9.1-7.4c1.4,1.6,2.9,5.8,4,8.4v0.9C-437,290.1-437.9,291-439,291z"/>
<path fill-rule="evenodd" clip-rule="evenodd" fill="#F15A24" d="M-454,271c1.7,0,3,1.3,3,3c0,1.7-1.3,3-3,3c-1.7,0-3-1.3-3-3
	C-457,272.3-455.7,271-454,271z"/>
</svg>
