<?xml version="1.0" encoding="utf-8"?>
<!-- Generator: Adobe Illustrator 18.1.0, SVG Export Plug-In . SVG Version: 6.00 Build 0)  -->
<!DOCTYPE svg PUBLIC "-//W3C//DTD SVG 1.1//EN" "http://www.w3.org/Graphics/SVG/1.1/DTD/svg11.dtd">
<svg version="1.1" id="Calque_1" xmlns="http://www.w3.org/2000/svg" xmlns:xlink="http://www.w3.org/1999/xlink" x="0px" y="0px"
	 viewBox="-463 265 32 32" enable-background="new -463 265 32 32" xml:space="preserve">
<g>
	<defs>
		<path id="XMLID_9_" d="M-437,297h-20c-3.3,0-6-2.7-6-6v-20c0-3.3,2.7-6,6-6h20c3.3,0,6,2.7,6,6v20C-431,294.3-433.7,297-437,297z"
			/>
	</defs>
	<clipPath id="XMLID_2_">
		<use xlink:href="#XMLID_9_"  overflow="visible"/>
	</clipPath>
	
		<rect x="-463" y="265" clip-path="url(#XMLID_2_)" fill-rule="evenodd" clip-rule="evenodd" fill="#39B54A" width="32" height="9"/>
	
		<rect x="-463" y="274" clip-path="url(#XMLID_2_)" fill-rule="evenodd" clip-rule="evenodd" fill="#8C6239" width="32" height="23"/>
</g>
<path fill-rule="evenodd" clip-rule="evenodd" fill="#F2F2F2" d="M-435,271c0-1.1-0.9-2-2-2h-20c-1.1,0-2,0.9-2,2v20
	c0,1.1,0.9,2,2,2h20c1.1,0,2-0.9,2-2V271z"/>
<rect x="-447" y="275" fill-rule="evenodd" clip-rule="evenodd" fill="#666666" width="8" height="2"/>
<rect x="-455" y="283" fill-rule="evenodd" clip-rule="evenodd" width="6" height="6"/>
<rect x="-453" y="285" fill-rule="evenodd" clip-rule="evenodd" fill="#F2F2F2" width="2" height="2"/>
<rect x="-455" y="273" fill-rule="evenodd" clip-rule="evenodd" width="6" height="6"/>
<rect x="-453" y="275" fill-rule="evenodd" clip-rule="evenodd" fill="#F2F2F2" width="2" height="2"/>
<rect x="-447" y="285" fill-rule="evenodd" clip-rule="evenodd" fill="#666666" width="8" height="2"/>
</svg>
