<?xml version="1.0" encoding="UTF-8" standalone="no"?>
<!-- Created with Inkscape (http://www.inkscape.org/) -->

<svg
   xmlns:dc="http://purl.org/dc/elements/1.1/"
   xmlns:cc="http://creativecommons.org/ns#"
   xmlns:rdf="http://www.w3.org/1999/02/22-rdf-syntax-ns#"
   xmlns:svg="http://www.w3.org/2000/svg"
   xmlns="http://www.w3.org/2000/svg"
   xmlns:xlink="http://www.w3.org/1999/xlink"
   version="1.1"
   width="64"
   height="64"
   id="svg3173">
  <defs
     id="defs3175">
    <linearGradient
       id="linearGradient3253">
      <stop
         id="stop3255"
         style="stop-color:#ececec;stop-opacity:1"
         offset="0" />
      <stop
         id="stop3257"
         style="stop-color:#4d4d4d;stop-opacity:1"
         offset="1" />
    </linearGradient>
    <linearGradient
       id="linearGradient3216">
      <stop
         id="stop3218"
         style="stop-color:#ececec;stop-opacity:1"
         offset="0" />
      <stop
         id="stop3220"
         style="stop-color:#333333;stop-opacity:1"
         offset="1" />
    </linearGradient>
    <radialGradient
       cx="23.735754"
       cy="1022.9507"
       r="24.318031"
       fx="23.735754"
       fy="1022.9507"
       id="radialGradient3222"
       xlink:href="#linearGradient3216"
       gradientUnits="userSpaceOnUse"
       gradientTransform="matrix(1.44169,-0.565318,0.44550816,1.1361861,-459.48799,-128.87369)" />
    <radialGradient
       cx="23.735754"
       cy="1022.9507"
       r="24.318031"
       fx="23.735754"
       fy="1022.9507"
       id="radialGradient3248"
       xlink:href="#linearGradient3253"
       gradientUnits="userSpaceOnUse"
       gradientTransform="matrix(1.44169,-0.565318,0.44550816,1.1361861,-459.48799,-128.87369)" />
  </defs>
  <metadata
     id="metadata3178">
    <rdf:RDF>
      <cc:Work
         rdf:about="">
        <dc:format>image/svg+xml</dc:format>
        <dc:type
           rdf:resource="http://purl.org/dc/dcmitype/StillImage" />
        <dc:title></dc:title>
      </cc:Work>
    </rdf:RDF>
  </metadata>
  <g
     transform="translate(0,-988.3622)"
     id="layer1">
    <g
       transform="translate(0.97650039,-0.05927734)"
       id="g4138">
      <path
         d="m 33,-55 a 10.5,10 0 1 1 -21,0 10.5,10 0 1 1 21,0 z"
         transform="matrix(0.90476191,0,0,0.95,28.142857,1090.1122)"
         id="path4140"
         style="color:#000000;fill:#4d4d4d;fill-opacity:1;fill-rule:nonzero;stroke:none;stroke-width:0.5;marker:none;visibility:visible;display:inline;overflow:visible;enable-background:accumulate" />
      <path
         d="m 33,-55 a 10.5,10 0 1 1 -21,0 10.5,10 0 1 1 21,0 z"
         transform="matrix(0.90476191,0,0,0.95000225,28.142857,1055.1123)"
         id="path4142"
         style="color:#000000;fill:#4d4d4d;fill-opacity:1;fill-rule:nonzero;stroke:none;stroke-width:0.5;marker:none;visibility:visible;display:inline;overflow:visible;enable-background:accumulate" />
      <path
         d="m 37.542951,994.39101 c -5.4976,-4.79422 -13.690132,-1.38492 -17.213631,4.22054 -5.185744,6.43985 -13.3528419,10.98765 -16.9926599,18.45105 -3.0650816,8.3075 6.1639771,13.8968 10.8938639,19.0256 5.670233,5.0011 11.592535,15.5083 20.660776,11.9103 8.159723,-5.1113 13.745965,-13.7045 21.058524,-19.9536 5.732126,-4.8059 3.634112,-14.0179 -2.386485,-17.6777 -5.350571,-5.3141 -10.633104,-10.70162 -16.020388,-15.97619 z"
         id="path4146"
         style="color:#000000;fill:#4d4d4d;fill-opacity:1;fill-rule:nonzero;stroke:none;stroke-width:0.5;marker:none;visibility:visible;display:inline;overflow:visible;enable-background:accumulate" />
      <path
         d="m 53.698484,997.66372 c -3.124194,-3.12419 -8.189514,-3.12419 -11.313708,0 -0.749319,0.74932 -1.311596,1.62209 -1.701476,2.54118 l -3.822796,-3.82281 c -3.209111,-3.20911 -8.369763,-3.20911 -11.578873,0 l -3.822796,3.82281 -10.47402,10.474 -3.822796,3.8228 c -3.2091104,3.2092 -3.2091104,8.3698 0,11.5789 l 3.822796,3.8228 10.47402,10.474 3.822796,3.8228 c 3.20911,3.2091 8.369762,3.2091 11.578873,0 l 3.822796,-3.8228 c 0.38988,0.9191 0.952158,1.7919 1.701476,2.5412 3.124194,3.1242 8.189514,3.1242 11.313708,0 3.124195,-3.1242 3.124195,-8.1895 0,-11.3137 -0.749318,-0.7493 -1.622083,-1.3116 -2.541165,-1.7015 l 3.822796,-3.8228 c 3.209111,-3.2091 3.209111,-8.3697 0,-11.5789 l -3.822796,-3.8228 c 0.919082,-0.3898 1.791847,-0.9521 2.541165,-1.7014 3.124195,-3.1242 3.124195,-8.1896 0,-11.31378 z"
         id="path4148"
         style="color:#000000;fill:#b3b3b3;fill-opacity:1;fill-rule:nonzero;stroke:none;stroke-width:0.5;marker:none;visibility:visible;display:inline;overflow:visible;enable-background:accumulate" />
      <path
         d="m 30.84375,996 c -1.561871,0.0652 -3.502449,0.91043 -4.634135,2.05312 L 9.187756,1014.7326 c -0.3615717,0.3355 -0.7238819,0.89 -1.094006,1.7362 -2.0800069,2.2132 -1.4940008,5.8497 0.2090069,8.0358 l 17.5684141,17.8255 c 3.067855,3.058 8.530501,3.0612 11.011793,-0.9631 2.967124,-3.8377 4.856783,-5.0519 6.523286,-0.2732 3.719995,5.0369 12.577537,0.4174 10.375,-5.5626 -0.706638,-2.7804 -3.599757,-4.109 -6.09375,-5 3.537364,-3.2841 10.406731,-8.256 6.59375,-13.7812 -1.6707,-3.0033 -9.85876,-6.73 -3.40625,-8.1562 5.886833,-2.703 2.743486,-12.4689 -3.65625,-11.2188 -3.208774,0.33656 -5.053282,3.4933 -5.90625,6.3125 -3.290938,-2.5128 -5.730298,-7.90841 -10.46875,-7.6875 z"
         id="path4150"
         style="color:#000000;fill:url(#radialGradient3248);fill-opacity:1;fill-rule:nonzero;stroke:none;stroke-width:0.5;marker:none;visibility:visible;display:inline;overflow:visible;enable-background:accumulate" />
      <path
         d="m 27.25,1010.3979 14,10 -14,9 z"
         id="path4152"
         style="fill:#5599ff;stroke:#000000;stroke-width:1px;stroke-linecap:butt;stroke-linejoin:miter;stroke-opacity:1" />
    </g>
  </g>
</svg>
